<?xml version="1.0" standalone="no"?><!DOCTYPE svg PUBLIC "-//W3C//DTD SVG 1.1//EN" "http://www.w3.org/Graphics/SVG/1.1/DTD/svg11.dtd"><svg t="1677656098357" class="icon" viewBox="0 0 1024 1024" version="1.1" xmlns="http://www.w3.org/2000/svg" p-id="2406" data-spm-anchor-id="a313x.7781069.0.i0" xmlns:xlink="http://www.w3.org/1999/xlink" width="200" height="200"><path d="M650.666667 938.666667h-234.666667c-17.066667 0-32-14.933333-32-32v-789.333334c0-17.066667 14.933333-32 32-32h234.666667c17.066667 0 32 14.933333 32 32v789.333334c0 17.066667-14.933333 32-32 32z m-234.666667-832c-6.4 0-10.666667 4.266667-10.666667 10.666666v789.333334c0 6.4 4.266667 10.666667 10.666667 10.666666h234.666667c6.4 0 10.666667-4.266667 10.666666-10.666666v-789.333334c0-6.4-4.266667-10.666667-10.666666-10.666666h-234.666667zM288 832h-149.333333c-17.066667 0-32-14.933333-32-32v-554.666667c0-17.066667 14.933333-32 32-32h149.333333c6.4 0 10.666667 4.266667 10.666667 10.666667s-4.266667 10.666667-10.666667 10.666667h-149.333333c-6.4 0-10.666667 4.266667-10.666667 10.666666v554.666667c0 6.4 4.266667 10.666667 10.666667 10.666667h149.333333c6.4 0 10.666667 4.266667 10.666667 10.666666s-4.266667 10.666667-10.666667 10.666667zM928 832h-149.333333c-6.4 0-10.666667-4.266667-10.666667-10.666667s4.266667-10.666667 10.666667-10.666666h149.333333c6.4 0 10.666667-4.266667 10.666667-10.666667v-554.666667c0-6.4-4.266667-10.666667-10.666667-10.666666h-149.333333c-6.4 0-10.666667-4.266667-10.666667-10.666667s4.266667-10.666667 10.666667-10.666667h149.333333c17.066667 0 32 14.933333 32 32v554.666667c0 17.066667-14.933333 32-32 32z" fill="#707070" p-id="2407" data-spm-anchor-id="a313x.7781069.0.i1" class=""></path><path d="M288 384h-106.666667c-6.4 0-10.666667-4.266667-10.666666-10.666667s4.266667-10.666667 10.666666-10.666666h106.666667c6.4 0 10.666667 4.266667 10.666667 10.666666s-4.266667 10.666667-10.666667 10.666667z" fill="#8a8a8a" p-id="2408" data-spm-anchor-id="a313x.7781069.0.i2" class=""></path><path d="M608 341.333333h-149.333333c-6.4 0-10.666667-4.266667-10.666667-10.666666s4.266667-10.666667 10.666667-10.666667h149.333333c6.4 0 10.666667 4.266667 10.666667 10.666667s-4.266667 10.666667-10.666667 10.666666z" fill="#515151" p-id="2409" data-spm-anchor-id="a313x.7781069.0.i5" class="selected"></path><path d="M885.333333 384h-106.666666c-6.4 0-10.666667-4.266667-10.666667-10.666667s4.266667-10.666667 10.666667-10.666666h106.666666c6.4 0 10.666667 4.266667 10.666667 10.666666s-4.266667 10.666667-10.666667 10.666667z" fill="#8a8a8a" p-id="2410" data-spm-anchor-id="a313x.7781069.0.i4" class=""></path><path d="M608 512h-149.333333c-6.4 0-10.666667-4.266667-10.666667-10.666667s4.266667-10.666667 10.666667-10.666666h149.333333c6.4 0 10.666667 4.266667 10.666667 10.666666s-4.266667 10.666667-10.666667 10.666667zM608 704h-149.333333c-6.4 0-10.666667-4.266667-10.666667-10.666667s4.266667-10.666667 10.666667-10.666666h149.333333c6.4 0 10.666667 4.266667 10.666667 10.666666s-4.266667 10.666667-10.666667 10.666667z" fill="#515151" p-id="2411" data-spm-anchor-id="a313x.7781069.0.i6" class="selected"></path><path d="M885.333333 554.666667h-106.666666c-6.4 0-10.666667-4.266667-10.666667-10.666667s4.266667-10.666667 10.666667-10.666667h106.666666c6.4 0 10.666667 4.266667 10.666667 10.666667s-4.266667 10.666667-10.666667 10.666667zM288 554.666667h-106.666667c-6.4 0-10.666667-4.266667-10.666666-10.666667s4.266667-10.666667 10.666666-10.666667h106.666667c6.4 0 10.666667 4.266667 10.666667 10.666667s-4.266667 10.666667-10.666667 10.666667z" fill="#8a8a8a" p-id="2412" data-spm-anchor-id="a313x.7781069.0.i3" class=""></path></svg>